# xmcd CD database file
#
# Track frame offsets:
#	150
#	22289
#	39426
#	53663
#	80223
#	97102
#	116955
#	147018
#	158734
#	182344
#	200202
#	224334
#	241121
#
# Disc length: 3540 seconds
#
# Revision: 0
# Processed by: cddbd v1.5.2PL0 Copyright (c) Steve Scherf et al.
# Submitted via: CDex 1.51
#
DISCID=bb0dd20d
DTITLE=June Garber - Here's To You
DYEAR=2008
DGENRE=Jazz
TTITLE0=What now My Love
TTITLE1=Cool
TTITLE2=Wouldn't It Be Lovely
TTITLE3=Alfie
TTITLE4=Too Close for Comfort
TTITLE5=Here's to Life
TTITLE6=Over the Rainbow
TTITLE7=Bye, Bye Blues
TTITLE8=You Were Never Mine
TTITLE9=Black Coffee
TTITLE10=you've Changed
TTITLE11=Mountain Greenery
TTITLE12=The Second Time Around
EXTD=YEAR: 2008
EXTT0=
EXTT1=
EXTT2=
EXTT3=
EXTT4=
EXTT5=
EXTT6=
EXTT7=
EXTT8=
EXTT9=
EXTT10=
EXTT11=
EXTT12=
PLAYORDER=
